<svg xmlns="http://www.w3.org/2000/svg" xmlns:xlink="http://www.w3.org/1999/xlink" version="1.1" width="256" height="256" viewBox="0 0 256 256" xml:space="preserve">

<defs>
</defs>
<g style="stroke: none; stroke-width: 0; stroke-dasharray: none; stroke-linecap: butt; stroke-linejoin: miter; stroke-miterlimit: 10; fill: none; fill-rule: nonzero; opacity: 1;" transform="translate(1.4065934065934016 1.4065934065934016) scale(2.81 2.81)" >
	<path d="M 24.6 25.813 l 15.83 21.166 L 24.5 64.187 h 3.585 l 13.946 -15.066 L 53.3 64.187 h 12.2 L 48.78 41.831 l 14.827 -16.018 h -3.585 L 47.178 39.689 L 36.8 25.813 H 24.6 z M 29.872 28.454 h 5.605 l 24.75 33.092 h -5.605 L 29.872 28.454 z" style="stroke: none; stroke-width: 1; stroke-dasharray: none; stroke-linecap: butt; stroke-linejoin: miter; stroke-miterlimit: 10; fill: rgb(0,0,0); fill-rule: nonzero; opacity: 1;" transform=" matrix(1 0 0 1 0 0) " stroke-linecap="round" />
	<path d="M 45 90 C 20.187 90 0 69.813 0 45 C 0 20.187 20.187 0 45 0 c 24.813 0 45 20.187 45 45 C 90 69.813 69.813 90 45 90 z M 45 3 C 21.841 3 3 21.841 3 45 c 0 23.159 18.841 42 42 42 c 23.159 0 42 -18.841 42 -42 C 87 21.841 68.159 3 45 3 z" style="stroke: none; stroke-width: 1; stroke-dasharray: none; stroke-linecap: butt; stroke-linejoin: miter; stroke-miterlimit: 10; fill: rgb(0,0,0); fill-rule: nonzero; opacity: 1;" transform=" matrix(1 0 0 1 0 0) " stroke-linecap="round" />
	<path d="M 45.008 81.031 c -9.245 0 -18.452 -3.563 -25.463 -10.575 C 6.499 57.41 5.388 36.76 16.962 22.421 c 0.52 -0.644 1.463 -0.747 2.109 -0.225 c 0.645 0.52 0.745 1.464 0.225 2.109 c -10.608 13.142 -9.589 32.07 2.369 44.029 c 11.957 11.956 30.886 12.977 44.029 2.369 c 0.645 -0.521 1.59 -0.42 2.109 0.225 c 0.521 0.645 0.42 1.589 -0.225 2.109 C 60.947 78.392 52.964 81.03 45.008 81.031 z" style="stroke: none; stroke-width: 1; stroke-dasharray: none; stroke-linecap: butt; stroke-linejoin: miter; stroke-miterlimit: 10; fill: rgb(0,0,0); fill-rule: nonzero; opacity: 1;" transform=" matrix(1 0 0 1 0 0) " stroke-linecap="round" />
	<path d="M 71.87 68.137 c -0.331 0 -0.664 -0.108 -0.941 -0.333 c -0.645 -0.521 -0.745 -1.465 -0.225 -2.109 c 10.607 -13.142 9.589 -32.07 -2.369 -44.029 C 56.375 9.707 37.446 8.688 24.306 19.296 c -0.646 0.521 -1.589 0.42 -2.109 -0.225 s -0.42 -1.589 0.225 -2.109 C 36.76 5.387 57.41 6.498 70.456 19.544 C 83.501 32.59 84.611 53.24 73.038 67.579 C 72.742 67.946 72.308 68.137 71.87 68.137 z" style="stroke: none; stroke-width: 1; stroke-dasharray: none; stroke-linecap: butt; stroke-linejoin: miter; stroke-miterlimit: 10; fill: rgb(0,0,0); fill-rule: nonzero; opacity: 1;" transform=" matrix(1 0 0 1 0 0) " stroke-linecap="round" />
</g>
</svg>